HIERARCHY
ROOT Hips
{
	OFFSET 0.000000 0.000000 0.000000
	CHANNELS 6 Xposition Yposition Zposition Xrotation Yrotation Zrotation
	JOINT Spine1
	{
		OFFSET 0.000000 0.000002 -3.124066
		CHANNELS 6 Xposition Yposition Zposition Xrotation Yrotation Zrotation
		JOINT Neck
		{
			OFFSET 0.000000 0.000002 -2.490615
			CHANNELS 6 Xposition Yposition Zposition Xrotation Yrotation Zrotation
			JOINT Head
			{
				OFFSET 0.000000 0.204341 -1.583640
				CHANNELS 6 Xposition Yposition Zposition Xrotation Yrotation Zrotation
				End Site
				{
					OFFSET 0.000000 0.000000 -2.043401
				}
			}
		}
		JOINT LeftShoulder
		{
			OFFSET 0.411488 -0.054013 -2.011039
			CHANNELS 6 Xposition Yposition Zposition Xrotation Yrotation Zrotation
			JOINT LeftArm
			{
				OFFSET 1.468305 0.000000 0.000000
				CHANNELS 6 Xposition Yposition Zposition Xrotation Yrotation Zrotation
				JOINT LeftForeArm
				{
					OFFSET 2.879112 0.000000 0.000000
					CHANNELS 6 Xposition Yposition Zposition Xrotation Yrotation Zrotation
					JOINT LeftHand
					{
						OFFSET 2.675755 0.000000 0.000000
						CHANNELS 6 Xposition Yposition Zposition Xrotation Yrotation Zrotation
						End Site
						{
							OFFSET 1.532550 0.000000 0.000000
						}
					}
				}
			}
		}
		JOINT RightShoulder
		{
			OFFSET -0.405812 -0.054013 -2.011039
			CHANNELS 6 Xposition Yposition Zposition Xrotation Yrotation Zrotation
			JOINT RightArm
			{
				OFFSET -1.468305 0.000000 0.000000
				CHANNELS 6 Xposition Yposition Zposition Xrotation Yrotation Zrotation
				JOINT RightForeArm
				{
					OFFSET -2.879111 0.000000 0.000000
					CHANNELS 6 Xposition Yposition Zposition Xrotation Yrotation Zrotation
					JOINT RightHand
					{
						OFFSET -2.675757 0.000000 0.000000
						CHANNELS 6 Xposition Yposition Zposition Xrotation Yrotation Zrotation
						End Site
						{
							OFFSET -1.532550 0.000000 0.000000
						}
					}
				}
			}
		}
	}
	JOINT LeftUpLeg
	{
		OFFSET 1.021703 0.000000 0.000000
		CHANNELS 6 Xposition Yposition Zposition Xrotation Yrotation Zrotation
		JOINT LeftLeg
		{
			OFFSET 0.000000 -0.000002 4.296927
			CHANNELS 6 Xposition Yposition Zposition Xrotation Yrotation Zrotation
			JOINT LeftFoot
			{
				OFFSET 0.000000 -0.000002 4.504838
				CHANNELS 6 Xposition Yposition Zposition Xrotation Yrotation Zrotation
				JOINT LeftToeBase
				{
					OFFSET 0.000000 1.532553 0.664107
					CHANNELS 6 Xposition Yposition Zposition Xrotation Yrotation Zrotation
					End Site
					{
						OFFSET 0.000000 0.408681 0.000000
					}
				}
			}
		}
	}
	JOINT RightUpLeg
	{
		OFFSET -1.021703 0.000000 0.000000
		CHANNELS 6 Xposition Yposition Zposition Xrotation Yrotation Zrotation
		JOINT RightLeg
		{
			OFFSET 0.000000 -0.000002 4.296927
			CHANNELS 6 Xposition Yposition Zposition Xrotation Yrotation Zrotation
			JOINT RightFoot
			{
				OFFSET 0.000000 -0.000002 4.504838
				CHANNELS 6 Xposition Yposition Zposition Xrotation Yrotation Zrotation
				JOINT RightToeBase
				{
					OFFSET 0.000000 1.532553 0.664107
					CHANNELS 6 Xposition Yposition Zposition Xrotation Yrotation Zrotation
					End Site
					{
						OFFSET 0.000000 0.408681 0.000000
					}
				}
			}
		}
	}
}
MOTION
Frames: 6
Frame Time: 0.016667
0.353278 -0.484819 -8.387137 11.694563 1.015026 -2.273801 0.000000 0.000002 -3.124066 -5.229466 4.275053 1.258984 -0.000000 0.000000 -2.490616 5.823237 2.196405 -2.555803 0.000000 0.204340 -1.583639 9.761681 -4.067773 -2.991200 0.411487 -0.054014 -2.011039 -8.853373 21.681940 -0.098762 1.468303 -0.000000 0.000003 -8.626761 -9.774966 8.348937 2.879111 -0.000001 0.000000 -9.766207 2.298005 1.932102 2.675754 0.000000 0.000000 -9.968871 -7.094875 -3.893861 -0.405811 -0.054013 -2.011039 -2.621323 -18.682150 6.485312 -1.468306 0.000000 0.000000 21.283435 -5.943625 -19.455345 -2.879112 -0.000001 0.000000 -43.157858 -40.631914 -99.441380 -2.675759 0.000001 -0.000000 2.423918 -28.513748 -6.352890 1.021703 -0.000000 0.000000 -29.662753 24.440691 -17.005539 0.000000 -0.000002 4.296928 32.470012 -10.100754 -5.819328 -0.000001 -0.000002 4.504840 -1.913616 -8.034352 -15.259809 -0.000000 1.532553 0.664107 0.000003 -0.000001 -0.000001 -1.021703 0.000000 0.000000 -32.103962 -27.581096 -5.546261 0.000002 -0.000001 4.296926 34.320106 29.667326 13.671498 0.000001 -0.000002 4.504839 -10.080002 -9.210267 31.964998 -0.000000 1.532553 0.664107 0.000003 -0.000001 -0.000001 
0.360484 -0.482480 -8.380460 11.617299 1.041448 -2.215463 -0.000000 0.000002 -3.124064 -5.144171 4.321642 1.201662 0.000000 0.000000 -2.490617 5.850219 2.136167 -2.548958 0.000000 0.204341 -1.583640 9.808885 -4.086382 -2.977885 0.411487 -0.054013 -2.011037 -8.842347 21.657051 -0.122718 1.468307 -0.000000 0.000000 -8.621694 -9.819714 8.329399 2.879112 0.000000 0.000002 -9.798762 2.305181 1.918097 2.675756 -0.000001 0.000000 -10.004578 -7.134410 -3.920137 -0.405811 -0.054013 -2.011039 -2.587263 -18.667127 6.488546 -1.468305 0.000000 0.000003 21.254193 -5.810426 -19.460650 -2.879113 -0.000001 -0.000001 -43.401546 -40.568271 -99.882993 -2.675757 0.000000 -0.000002 2.453208 -28.370895 -6.325523 1.021703 0.000000 -0.000000 -29.623524 24.596029 -17.003194 0.000000 -0.000001 4.296925 32.767419 -10.361330 -5.774758 0.000000 -0.000002 4.504839 -2.298994 -8.084483 -15.310100 0.000000 1.532553 0.664107 0.000002 0.000002 -0.000008 -1.021703 0.000000 0.000000 -31.896396 -27.890960 -5.468226 0.000000 -0.000001 4.296925 34.145837 30.029999 14.032438 0.000001 -0.000002 4.504840 -10.227783 -8.800877 31.990222 -0.000000 1.532552 0.664107 0.000000 0.000002 0.000009 
0.368049 -0.480350 -8.373372 11.561223 1.047283 -2.136584 0.000000 0.000002 -3.124065 -5.083020 4.392056 1.127739 -0.000000 0.000002 -2.490614 5.893992 2.064804 -2.543648 -0.000000 0.204343 -1.583642 9.815674 -4.064587 -2.964719 0.411487 -0.054013 -2.011037 -8.862617 21.660468 -0.107812 1.468305 -0.000000 0.000000 -8.589827 -9.885509 8.287881 2.879112 0.000000 0.000000 -9.842680 2.279381 1.888906 2.675754 0.000000 -0.000003 -10.050627 -7.108495 -3.952457 -0.405811 -0.054013 -2.011036 -2.596406 -18.635372 6.460530 -1.468305 -0.000000 0.000000 21.186832 -5.669858 -19.448834 -2.879112 -0.000001 -0.000000 -43.581996 -40.594048 -100.303596 -2.675758 0.000002 -0.000002 2.636374 -28.328462 -6.260827 1.021703 0.000000 -0.000000 -29.626943 24.755440 -17.046299 -0.000002 -0.000002 4.296926 33.088920 -10.551748 -5.843900 -0.000001 -0.000002 4.504837 -2.645621 -8.143032 -15.194553 -0.000000 1.532554 0.664106 -0.000005 0.000002 0.000006 -1.021703 0.000000 -0.000001 -31.727530 -28.172577 -5.387730 0.000000 -0.000001 4.296924 33.984426 30.372755 14.360782 0.000002 -0.000002 4.504839 -10.205663 -8.462750 31.989474 -0.000000 1.532553 0.664106 -0.000001 -0.000002 0.000009 
0.374632 -0.476972 -8.366834 11.508871 1.066536 -2.018857 0.000000 0.000002 -3.124064 -5.025833 4.441263 1.018920 -0.000000 0.000002 -2.490617 5.926177 2.049394 -2.525840 -0.000000 0.204342 -1.583640 9.854054 -4.113636 -2.945232 0.411487 -0.054013 -2.011039 -8.869941 21.656708 -0.123041 1.468307 -0.000000 -0.000002 -8.684365 -9.941287 8.278532 2.879112 -0.000000 -0.000002 -9.790655 2.261788 1.805037 2.675754 0.000001 0.000000 -10.000335 -7.177553 -3.910829 -0.405810 -0.054013 -2.011039 -2.550019 -18.595125 6.495989 -1.468304 -0.000000 0.000001 21.075809 -5.544548 -19.522661 -2.879113 0.000001 -0.000003 -43.758502 -40.652043 -100.676271 -2.675757 0.000001 -0.000001 2.833501 -28.297571 -6.164968 1.021703 0.000000 0.000001 -29.582441 24.927337 -16.888350 -0.000000 -0.000001 4.296926 33.361502 -10.892177 -5.789064 -0.000001 -0.000002 4.504838 -2.985366 -8.026351 -15.336191 0.000000 1.532551 0.664107 0.000002 -0.000001 0.000001 -1.021702 0.000000 0.000000 -31.582235 -28.415762 -5.408709 -0.000002 -0.000001 4.296924 33.808005 30.675503 14.602036 0.000002 -0.000002 4.504837 -10.262122 -7.946744 31.974854 -0.000000 1.532554 0.664107 -0.000001 0.000002 0.000000 
0.381088 -0.474143 -8.360043 11.463603 1.064433 -1.884713 0.000000 0.000000 -3.124065 -4.970531 4.526011 0.918426 -0.000000 0.000002 -2.490618 5.968149 2.023165 -2.524362 -0.000000 0.204342 -1.583641 9.860990 -4.163548 -2.942689 0.411487 -0.054013 -2.011039 -8.884182 21.636830 -0.114496 1.468305 -0.000000 0.000001 -8.749963 -9.985328 8.213209 2.879110 -0.000000 -0.000001 -9.780117 2.233042 1.775883 2.675756 -0.000002 -0.000002 -9.991617 -7.136286 -3.946336 -0.405811 -0.054013 -2.011041 -2.525287 -18.552561 6.499229 -1.468305 0.000000 0.000006 20.998790 -5.463488 -19.582306 -2.879112 -0.000001 -0.000001 -43.908202 -40.599187 -101.003909 -2.675756 -0.000001 0.000001 2.844848 -28.362318 -6.257521 1.021703 0.000000 0.000000 -29.546855 25.113076 -16.847001 -0.000002 -0.000002 4.296926 33.636855 -11.148901 -5.632452 -0.000001 -0.000002 4.504839 -3.296000 -7.941063 -15.480183 -0.000000 1.532553 0.664107 -0.000002 -0.000003 0.000004 -1.021703 0.000000 -0.000002 -31.448469 -28.585947 -5.402446 -0.000000 -0.000001 4.296924 33.627764 30.843898 14.817851 0.000001 -0.000002 4.504840 -10.255544 -7.185860 31.903878 0.000000 1.532553 0.664107 -0.000005 0.000001 0.000001 
0.387336 -0.471806 -8.353912 11.446851 1.058328 -1.746242 -0.000000 0.000002 -3.124066 -4.977239 4.592845 0.810949 0.000000 0.000001 -2.490616 6.049302 2.012034 -2.511956 -0.000000 0.204340 -1.583642 9.861950 -4.190457 -2.928652 0.411489 -0.054013 -2.011042 -8.869228 21.661962 -0.143827 1.468304 -0.000000 -0.000000 -8.868951 -10.079979 8.205787 2.879111 -0.000000 -0.000000 -9.724035 2.239302 1.696619 2.675759 0.000001 -0.000003 -9.940874 -7.197317 -3.974485 -0.405811 -0.054013 -2.011040 -2.546564 -18.537357 6.461023 -1.468306 -0.000000 -0.000000 21.028961 -5.327267 -19.626572 -2.879113 -0.000002 -0.000002 -44.144698 -40.663610 -101.358832 -2.675758 0.000001 -0.000000 2.976356 -28.409221 -6.156572 1.021703 0.000000 -0.000001 -29.576386 25.249775 -16.789935 -0.000001 -0.000001 4.296926 33.904817 -11.299997 -5.742394 -0.000000 -0.000002 4.504836 -3.516641 -7.895659 -15.389168 -0.000000 1.532553 0.664107 -0.000001 -0.000000 -0.000001 -1.021703 0.000000 -0.000000 -31.347303 -28.742170 -5.412387 -0.000000 -0.000001 4.296926 33.414375 30.985881 15.020807 0.000001 -0.000002 4.504839 -10.038293 -6.556681 31.694584 -0.000000 1.532553 0.664107 -0.000003 0.000001 0.000007 
